<svg xmlns="http://www.w3.org/2000/svg" width="1600" height="900" viewBox="0 0 1600 900"><defs><linearGradient id="bg" x2="1" y2="1"><stop stop-color="#0b1828"/><stop offset="1" stop-color="#163851"/></linearGradient></defs><rect width="1600" height="900" fill="url(#bg)"/><g font-family="Arial, sans-serif"><text x="80" y="90" font-size="23" font-weight="700" fill="#55dfc7">ACECORE SYSTEMS</text><text x="80" y="147" font-size="21" font-weight="600" fill="#8ca9bf">PROFILE IMPORT / EXPLICIT REPLACEMENT</text><text x="80" y="220" font-size="51" font-weight="700" fill="#f2f7fa">Compare before replacing</text><text x="80" y="276" font-size="25" font-weight="400" fill="#c2d2df">Stage 1: text, CSV, and static HTML input</text><rect x="80" y="340" width="420" height="245" rx="20" fill="#142b41" stroke="#31536a" stroke-width="2"/><text x="105" y="390" font-size="24" font-weight="700" fill="#55dfc7">01</text><text x="105" y="446" font-size="28" font-weight="700" fill="#55dfc7">INPUT</text><text x="105" y="498" font-size="22" font-weight="400" fill="#c2d2df">Parse supplied content</text><text x="105" y="534" font-size="22" font-weight="400" fill="#c2d2df">Do not execute source HTML</text><path d="M518 462h36m-11-10 11 10-11 10" fill="none" stroke="#55dfc7" stroke-width="4" stroke-linecap="round" stroke-linejoin="round"/><rect x="572" y="340" width="420" height="245" rx="20" fill="#142b41" stroke="#31536a" stroke-width="2"/><text x="597" y="390" font-size="24" font-weight="700" fill="#55dfc7">02</text><text x="597" y="446" font-size="28" font-weight="700" fill="#55dfc7">COMPARE &amp; SELECT</text><text x="597" y="498" font-size="22" font-weight="400" fill="#c2d2df">Current value vs candidate</text><text x="597" y="534" font-size="22" font-weight="400" fill="#c2d2df">Edit the selected candidate</text><path d="M1010 462h36m-11-10 11 10-11 10" fill="none" stroke="#55dfc7" stroke-width="4" stroke-linecap="round" stroke-linejoin="round"/><rect x="1064" y="340" width="450" height="245" rx="20" fill="#142b41" stroke="#31536a" stroke-width="2"/><text x="1089" y="390" font-size="24" font-weight="700" fill="#55dfc7">03</text><text x="1089" y="446" font-size="28" font-weight="700" fill="#55dfc7">APPLY TO DRAFT</text><text x="1089" y="498" font-size="22" font-weight="400" fill="#c2d2df">Selected fields are replaced</text><text x="1089" y="534" font-size="22" font-weight="400" fill="#c2d2df">Cancel before saving</text><rect x="80" y="632" width="1434" height="132" rx="20" fill="#203e53" stroke="#31536a" stroke-width="2"/><text x="112" y="685" font-size="29" font-weight="700" fill="#55dfc7">SAVE DRAFT</text><path d="M443 674h36m-11-10 11 10-11 10" fill="none" stroke="#55dfc7" stroke-width="4" stroke-linecap="round" stroke-linejoin="round"/><text x="550" y="685" font-size="29" font-weight="700" fill="#f4ba62">EXPLICIT PUBLICATION</text><text x="112" y="735" font-size="25" font-weight="400" fill="#c2d2df">No automatic merge protection · Direct URL retrieval and media import are not complete</text><text x="80" y="853" font-size="20" font-weight="400" fill="#8ca9bf">Implementation and deployment verified · Real-account import/save/publish acceptance pending</text></g></svg>
